<?xml version="1.0" standalone="no"?>
<!DOCTYPE svg PUBLIC "-//W3C//DTD SVG 20010904//EN"
 "http://www.w3.org/TR/2001/REC-SVG-20010904/DTD/svg10.dtd">
<svg version="1.0" xmlns="http://www.w3.org/2000/svg"
 width="1000.000000pt" height="1000.000000pt" viewBox="0 0 1000.000000 1000.000000"
 preserveAspectRatio="xMidYMid meet">
<metadata>
Created by potrace 1.14, written by Peter Selinger 2001-2017
</metadata>
<g transform="translate(0.000000,1000.000000) scale(0.100000,-0.100000)"
fill="#000000" stroke="none">
<path d="M3601 8899 c-40 -11 -89 -32 -108 -47 -38 -28 -94 -86 -358 -368 -66
-70 -142 -151 -170 -179 -27 -29 -97 -103 -155 -164 -58 -62 -132 -141 -165
-176 -147 -152 -169 -185 -189 -275 -16 -69 -16 -80 -1 -144 19 -81 54 -136
126 -197 29 -24 62 -53 74 -64 11 -11 50 -44 85 -74 36 -30 72 -62 81 -70 9
-9 33 -29 53 -46 21 -16 47 -39 60 -50 73 -65 118 -104 155 -135 23 -19 52
-44 65 -55 12 -11 51 -45 86 -75 34 -30 73 -64 86 -75 12 -11 33 -29 46 -39
35 -29 161 -138 179 -156 9 -8 35 -31 59 -50 24 -19 52 -44 64 -55 12 -11 48
-42 81 -70 33 -27 62 -52 65 -55 10 -10 146 -127 169 -146 13 -10 33 -28 45
-39 12 -11 53 -47 91 -80 39 -32 78 -66 87 -75 9 -8 23 -20 31 -26 12 -10 157
-136 183 -159 7 -5 33 -28 59 -50 26 -22 57 -49 69 -60 13 -11 46 -40 75 -65
29 -25 65 -56 80 -69 14 -12 46 -39 70 -60 24 -20 56 -47 71 -61 15 -14 51
-45 80 -70 66 -56 116 -99 146 -125 12 -12 44 -39 70 -60 26 -22 58 -51 71
-64 l24 -23 -22 -16 c-13 -9 -30 -23 -39 -31 -9 -9 -40 -36 -70 -61 -29 -25
-64 -55 -77 -67 -13 -11 -42 -35 -63 -53 -21 -18 -50 -42 -63 -53 -13 -12 -45
-40 -71 -62 -26 -22 -58 -49 -70 -60 -12 -11 -46 -40 -76 -65 -29 -25 -58 -50
-64 -55 -6 -6 -42 -37 -81 -70 -38 -33 -72 -62 -75 -65 -3 -3 -30 -25 -60 -50
-30 -25 -59 -50 -65 -56 -5 -5 -39 -35 -75 -65 -36 -30 -70 -58 -76 -64 -6 -5
-35 -30 -64 -55 -29 -25 -58 -50 -64 -55 -12 -11 -133 -115 -215 -185 -30 -25
-63 -53 -75 -63 -11 -10 -43 -37 -70 -60 -27 -23 -54 -46 -60 -52 -6 -5 -40
-35 -76 -65 -36 -30 -70 -59 -76 -65 -6 -5 -35 -30 -64 -55 -29 -25 -60 -52
-70 -60 -10 -8 -39 -33 -65 -55 -26 -22 -57 -49 -69 -60 -13 -11 -47 -41 -77
-67 -30 -25 -64 -54 -75 -65 -12 -10 -43 -36 -70 -58 -26 -22 -52 -45 -58 -50
-6 -6 -42 -37 -81 -70 -38 -33 -72 -62 -75 -65 -3 -3 -30 -25 -60 -50 -30 -25
-62 -52 -71 -60 -8 -8 -44 -40 -79 -70 -78 -68 -102 -106 -124 -194 -16 -64
-16 -73 -1 -142 22 -101 33 -115 365 -464 77 -81 303 -321 381 -404 35 -38 91
-97 124 -132 33 -34 80 -83 104 -108 59 -62 103 -88 185 -107 64 -16 74 -16
140 0 71 17 143 60 214 129 16 15 50 45 76 67 26 22 63 54 81 70 34 31 140
125 178 158 46 39 142 123 157 137 9 8 47 42 85 75 39 33 75 64 81 70 6 5 35
30 64 55 29 25 65 56 80 70 15 14 53 48 84 75 32 28 70 61 86 75 15 14 52 45
81 70 28 25 64 56 80 70 15 14 42 38 61 54 18 15 64 56 102 90 38 33 78 69 90
79 12 10 48 42 80 70 84 74 96 84 148 128 25 22 62 54 81 72 19 18 63 57 98
87 35 30 81 71 104 91 22 20 50 44 63 55 13 10 38 33 56 49 18 17 46 41 62 54
38 32 173 150 200 176 12 11 43 39 70 61 27 23 61 52 75 65 14 13 54 49 89 79
99 86 103 90 141 123 20 18 65 57 99 87 35 30 77 67 93 82 16 15 46 41 67 58
21 17 51 43 67 58 16 15 53 47 82 72 29 25 70 61 91 80 21 19 60 54 87 77 26
22 60 52 74 65 14 12 49 43 79 68 29 25 67 59 85 75 18 17 56 50 85 75 29 25
63 54 75 65 13 11 49 43 80 70 31 28 69 61 85 75 15 14 53 48 85 75 89 77 89
77 124 126 20 28 38 72 48 113 13 61 13 74 -2 141 -11 53 -26 87 -52 122 -20
26 -40 50 -44 53 -14 11 -102 86 -123 105 -12 11 -51 45 -86 75 -34 30 -73 64
-85 75 -13 11 -49 43 -80 70 -32 28 -71 62 -86 76 -15 14 -49 44 -75 65 -26
21 -57 48 -68 59 -12 11 -53 47 -91 80 -39 33 -79 69 -91 80 -11 11 -42 38
-69 60 -26 22 -60 51 -75 65 -15 14 -55 50 -90 80 -35 30 -75 65 -88 78 -14
12 -48 41 -76 65 -28 23 -64 55 -81 71 -16 15 -50 44 -74 65 -24 20 -53 45
-65 56 -12 11 -51 45 -86 75 -34 30 -73 64 -85 75 -13 11 -46 40 -75 65 -29
25 -69 60 -89 78 -20 19 -53 48 -75 65 -21 18 -50 43 -65 57 -14 14 -71 64
-126 112 -55 47 -114 99 -132 115 -17 15 -53 46 -79 68 -26 22 -57 49 -69 60
-22 21 -139 124 -189 166 -16 13 -41 35 -56 49 -15 14 -51 45 -80 70 -29 25
-65 56 -80 70 -15 14 -51 45 -80 70 -28 25 -66 58 -83 73 -18 16 -54 48 -81
70 -26 23 -61 53 -76 67 -15 14 -51 45 -80 70 -29 25 -62 54 -74 65 -11 11
-48 43 -80 70 -33 28 -74 64 -92 80 -18 17 -53 48 -79 70 -26 22 -60 51 -75
65 -15 14 -51 45 -80 70 -29 25 -65 56 -80 70 -15 14 -51 45 -80 70 -29 25
-65 56 -80 70 -15 14 -54 48 -86 76 -51 45 -79 68 -166 139 -33 27 -56 35
-178 60 -8 2 -48 -6 -89 -16z"/>
</g>
</svg>
